<svg xmlns="http://www.w3.org/2000/svg" width="132.791" height="34.013" viewBox="0 0 132.791 34.013">
  <path fill="#777878" d="M132.78 9.08c0-.33 0-.66-.003-.99-.024-.72-.067-1.442-.198-2.153-.13-.72-.34-1.393-.67-2.047-.33-.644-.76-1.234-1.27-1.743-.51-.51-1.1-.937-1.74-1.266-.66-.33-1.33-.54-2.05-.67-.71-.13-1.43-.17-2.15-.19l-.99-.01c-.39-.01-.78-.01-1.17-.01H10.25c-.393 0-.783 0-1.176.01l-.988.02c-.716.02-1.44.06-2.154.19-.72.13-1.39.34-2.044.68-.644.33-1.232.76-1.74 1.27-.515.51-.94 1.1-1.267 1.74-.33.66-.54 1.33-.67 2.05-.13.7-.17 1.42-.19 2.14-.01.33-.01.66-.01.99v15.86c.01.34.01.66.02.99.01.72.06 1.44.19 2.16.12.73.33 1.4.67 2.05.32.64.75 1.23 1.26 1.74s1.1.94 1.74 1.27c.66.34 1.33.55 2.05.68.72.13 1.44.17 2.16.19.33.01.66.01.99.01.39.01.78.01 1.18.01h113.46c.33 0 .66 0 .99-.01.72-.02 1.44-.06 2.15-.19.72-.13 1.39-.34 2.05-.68.64-.323 1.23-.75 1.74-1.263.51-.51.94-1.1 1.27-1.74.33-.65.54-1.33.67-2.05.13-.71.18-1.43.2-2.15.01-.33.01-.66.01-.99.01-.39.01-.78.01-1.18v-13.5c0-.395 0-.786-.01-1.176z"/>
  <path fill="#FFF" d="M132.125 23.76c0 .393 0 .776-.01 1.178 0 .328 0 .653-.004.97-.01.62-.05 1.35-.18 2.06-.11.67-.31 1.28-.6 1.855-.3.585-.68 1.115-1.15 1.576-.46.45-.98.84-1.57 1.14-.57.29-1.18.49-1.86.61-.71.12-1.43.16-2.04.18-.33 0-.65.01-.98.01H10.25c-.392 0-.78 0-1.177-.01-.325 0-.647-.01-.968-.01-.617-.02-1.343-.06-2.058-.18-.682-.13-1.29-.33-1.858-.62-.58-.3-1.11-.68-1.58-1.15-.46-.46-.84-.98-1.14-1.57-.29-.57-.49-1.18-.61-1.87-.14-.74-.17-1.48-.18-2.06-.01-.23-.01-.46-.02-.69l-.01-.28V9.09l.01-.3c0-.226 0-.454.01-.685.01-.567.04-1.312.18-2.053.12-.685.32-1.292.61-1.862.3-.587.68-1.114 1.14-1.572.46-.464.99-.848 1.57-1.145.59-.293 1.2-.495 1.87-.613C6.77.73 7.52.696 8.09.68l.98-.015c.395-.003.785-.003 1.176-.003h112.29c.382 0 .773 0 1.16.003l.05.002.925.012c.58.01 1.33.05 2.05.18.68.11 1.29.32 1.87.61.59.3 1.12.68 1.57 1.14.47.46.85.99 1.15 1.57.3.58.49 1.19.61 1.87.13.7.17 1.43.19 2.04.01.32.01.65.01.99.01.38.01.77.01 1.16v13.51z"/>
  <linearGradient id="a" x1="17.491" x2="17.491" y1="5.811" y2="28.204" gradientUnits="userSpaceOnUse">
    <stop offset="0" stop-color="#F452FF"/>
    <stop offset="1" stop-color="#832BC1"/>
  </linearGradient>
  <path fill="url(#a)" fill-rule="evenodd" d="M28.244 25.22c-.218.553-.72 1.33-1.432 1.88-.41.317-.902.62-1.577.82-.72.212-1.604.284-2.706.284H12.45c-1.102 0-1.987-.072-2.706-.285-.674-.2-1.165-.51-1.577-.82-.713-.55-1.216-1.33-1.433-1.88-.438-1.12-.443-2.38-.443-3.18V11.97c0-.797.01-2.06.45-3.175.22-.553.72-1.33 1.43-1.88.41-.316.9-.62 1.58-.82.72-.212 1.61-.284 2.71-.284h10.08c1.1 0 1.99.08 2.71.29.68.2 1.17.51 1.58.82.71.55 1.22 1.33 1.43 1.88.44 1.12.45 2.38.45 3.18v10.07c0 .8 0 2.06-.44 3.18z" clip-rule="evenodd"/>
  <path fill="none" fill-rule="evenodd" d="M28.244 25.22c-.218.553-.72 1.33-1.432 1.88-.41.317-.902.62-1.577.82-.72.212-1.604.284-2.706.284H12.45c-1.102 0-1.987-.072-2.706-.285-.674-.2-1.165-.51-1.577-.82-.713-.55-1.216-1.33-1.433-1.88-.438-1.12-.443-2.38-.443-3.18V11.97c0-.797.01-2.06.45-3.175.22-.553.72-1.33 1.43-1.88.41-.316.9-.62 1.58-.82.72-.212 1.61-.284 2.71-.284h10.08c1.1 0 1.99.08 2.71.29.68.2 1.17.51 1.58.82.71.55 1.22 1.33 1.43 1.88.44 1.12.45 2.38.45 3.18v10.07c0 .8 0 2.06-.44 3.18z" clip-rule="evenodd"/>
  <path fill="#FFF" d="M19.114 18.682c-.336-.354-.926-.582-1.623-.582s-1.28.227-1.62.582c-.17.185-.27.375-.29.645-.05.523-.02.974.04 1.694.06.69.17 1.61.32 2.54.11.67.19 1.02.27 1.28.13.42.59.78 1.31.78s1.19-.36 1.31-.78c.08-.25.16-.61.27-1.28.15-.93.26-1.84.32-2.53.06-.72.1-1.17.04-1.69-.02-.27-.12-.46-.29-.64zm-3.453-3.157c0 1.012.82 1.833 1.84 1.833s1.84-.82 1.84-1.833c0-1.012-.82-1.833-1.83-1.833s-1.83.82-1.83 1.833zm1.81-7.232c-4.28.012-7.79 3.49-7.85 7.775-.04 3.472 2.18 6.442 5.27 7.53.08.026.15-.036.14-.115-.04-.27-.08-.54-.11-.807-.01-.094-.07-.175-.16-.213-2.44-1.07-4.15-3.522-4.12-6.363.04-3.73 3.08-6.77 6.81-6.8 3.81-.03 6.93 3.062 6.93 6.867 0 2.813-1.7 5.236-4.13 6.296-.08.038-.14.12-.16.213-.03.266-.07.537-.11.806-.01.08.07.14.14.115 3.07-1.078 5.27-4.002 5.27-7.43 0-4.35-3.54-7.887-7.9-7.874zm-.14 3.613c2.43-.094 4.44 1.855 4.44 4.264 0 1.225-.52 2.33-1.35 3.11-.07.067-.1.16-.1.257.02.293.01.578-.01.9 0 .085.09.14.17.09 1.39-.95 2.31-2.548 2.31-4.357 0-2.978-2.48-5.388-5.48-5.27-2.79.107-5.03 2.408-5.06 5.202-.02 1.837.9 3.464 2.31 4.427.07.04.17-.01.16-.1-.02-.32-.02-.61 0-.9 0-.1-.03-.19-.1-.26-.85-.81-1.38-1.96-1.34-3.23.06-2.24 1.86-4.07 4.1-4.15z"/>
  <path fill="#FFF" d="M132.125 23.76c0 .393 0 .776-.01 1.178 0 .328 0 .653-.004.97-.01.62-.05 1.35-.18 2.06-.11.67-.31 1.28-.6 1.855-.3.585-.68 1.115-1.15 1.576-.46.45-.98.84-1.57 1.14-.57.29-1.18.49-1.86.61-.71.12-1.43.16-2.04.18-.33 0-.65.01-.98.01H10.25c-.392 0-.78 0-1.177-.01-.325 0-.647-.01-.968-.01-.617-.02-1.343-.06-2.058-.18-.682-.13-1.29-.33-1.858-.62-.58-.3-1.11-.68-1.58-1.15-.46-.46-.84-.98-1.14-1.57-.29-.57-.49-1.18-.61-1.87-.14-.74-.17-1.48-.18-2.06-.01-.23-.01-.46-.02-.69l-.01-.28V9.09l.01-.3c0-.226 0-.454.01-.685.01-.567.04-1.312.18-2.053.12-.685.32-1.292.61-1.862.3-.587.68-1.114 1.14-1.572.46-.464.99-.848 1.57-1.145.59-.293 1.2-.495 1.87-.613C6.77.73 7.52.696 8.09.68l.98-.015c.395-.003.785-.003 1.176-.003h112.29c.382 0 .773 0 1.16.003l.05.002.925.012c.58.01 1.33.05 2.05.18.68.11 1.29.32 1.87.61.59.3 1.12.68 1.57 1.14.47.46.85.99 1.15 1.57.3.58.49 1.19.61 1.87.13.7.17 1.43.19 2.04.01.32.01.65.01.99.01.38.01.77.01 1.16v13.51z"/>
  <path fill="#777878" d="M37.18 13.03h-3.92V6.577h.805v5.727h3.112v.724zm.978-5.916c0-.268.22-.483.483-.483.27 0 .49.22.49.49s-.22.49-.48.49-.48-.22-.48-.48zm.094 1.265h.778v4.65h-.778V8.38zm3.755-.04c.957 0 1.677.56 1.704 1.33h-.74c-.04-.44-.42-.7-.99-.7-.56 0-.94.27-.94.66 0 .31.25.52.78.65l.72.17c.94.23 1.28.57 1.28 1.24 0 .8-.77 1.36-1.85 1.36-1.01 0-1.74-.55-1.81-1.36h.78c.08.47.46.72 1.09.72s1.02-.26 1.02-.67c0-.32-.19-.49-.71-.63l-.82-.21c-.82-.21-1.22-.62-1.22-1.25 0-.79.72-1.34 1.74-1.34zm3.903-1.09v1.13h.904v.64h-.903v2.75c0 .42.18.61.58.61.09 0 .27-.02.32-.02v.65c-.09.02-.31.03-.49.03-.85 0-1.18-.34-1.18-1.24V9h-.69v-.64h.7v-1.1h.78zm5.717 4.44c-.13.8-.94 1.37-1.936 1.37-1.31 0-2.14-.91-2.14-2.35s.83-2.39 2.11-2.39c1.25 0 2.03.87 2.03 2.28v.29h-3.34v.04c0 .87.54 1.44 1.36 1.44.57 0 1.03-.28 1.16-.7h.77zm-3.272-1.39h2.526c-.01-.78-.51-1.3-1.23-1.3s-1.24.52-1.29 1.29zm4.382-1.93h.733v.76h.018c.29-.54.755-.81 1.475-.81 1.02 0 1.61.65 1.61 1.71v2.98h-.778v-2.84c0-.75-.35-1.17-1.073-1.17-.75 0-1.207.52-1.207 1.31V13h-.778V8.37zm7.013 2.33c0-1.45.84-2.37 2.156-2.37 1.31 0 2.15.92 2.15 2.37 0 1.44-.84 2.37-2.15 2.37-1.314 0-2.155-.93-2.155-2.37zm3.515 0c0-1.06-.505-1.69-1.36-1.69-.857 0-1.363.63-1.363 1.68 0 1.06.51 1.68 1.364 1.68s1.36-.63 1.36-1.69zm1.843-2.33h.733v.76h.02c.29-.54.76-.81 1.48-.81 1.02 0 1.61.65 1.61 1.71v2.98h-.78v-2.84c0-.75-.35-1.17-1.07-1.17-.75 0-1.2.52-1.2 1.31V13h-.78V8.37z"/>
  <path d="M38.607 24.395h-3.65l-.877 2.59h-1.547l3.458-9.58h1.61l3.46 9.58h-1.57l-.87-2.59zM35.335 23.2h2.894L36.8 19h-.04l-1.427 4.2zm13.363.293c0 2.17-1.162 3.564-2.914 3.564-.996 0-1.785-.445-2.197-1.222h-.033v3.458H42.12V20h1.387v1.162h.026c.398-.75 1.248-1.234 2.224-1.234 1.772 0 2.94 1.4 2.94 3.565zm-1.474 0c0-1.414-.73-2.343-1.845-2.343-1.1 0-1.84.95-1.84 2.343 0 1.407.73 2.35 1.83 2.35 1.11 0 1.84-.923 1.84-2.35zm9.213 0c0 2.17-1.162 3.564-2.914 3.564-.996 0-1.785-.445-2.197-1.222h-.033v3.458H49.86V20h1.386v1.162h.026c.398-.75 1.248-1.234 2.224-1.234 1.772 0 2.94 1.4 2.94 3.565zm-1.474 0c0-1.414-.73-2.343-1.845-2.343-1.095 0-1.832.95-1.832 2.343 0 1.407.737 2.35 1.832 2.35 1.115 0 1.845-.923 1.845-2.35zm2.687-6.087h1.435v9.578H57.65v-9.578zm9.19 7.528c-.19 1.268-1.426 2.137-3.006 2.137-2.03 0-3.292-1.36-3.292-3.54 0-2.19 1.268-3.61 3.232-3.61 1.932 0 3.146 1.33 3.146 3.45v.49h-4.932v.09c0 1.2.75 1.98 1.878 1.98.796 0 1.42-.38 1.613-.98h1.36zm-4.844-2.085h3.49c-.032-1.07-.716-1.78-1.71-1.78-.99 0-1.707.71-1.78 1.77zm13.097-5.45c1.858 0 3.153 1.28 3.153 3.14 0 1.87-1.32 3.16-3.2 3.16H72.99v3.27H71.5V17.4h3.59zm-2.103 5.06h1.7c1.295 0 2.03-.7 2.03-1.91s-.735-1.9-2.022-1.9h-1.71v3.8zm5.925 1.03c0-2.2 1.294-3.58 3.312-3.58 2.023 0 3.31 1.38 3.31 3.58s-1.28 3.57-3.31 3.57-3.313-1.38-3.313-3.58zm5.164 0c0-1.51-.69-2.4-1.85-2.4s-1.86.89-1.86 2.39c0 1.51.69 2.39 1.85 2.39s1.85-.89 1.85-2.4zm2.45 0c0-2.16 1.19-3.57 2.92-3.57 1 0 1.79.46 2.19 1.23h.02V17.4h1.44v9.578h-1.39V25.79h-.03c-.41.797-1.21 1.26-2.23 1.26-1.75.003-2.93-1.405-2.93-3.562zm1.46 0c0 1.43.73 2.35 1.84 2.35 1.1 0 1.84-.93 1.84-2.35 0-1.41-.74-2.35-1.84-2.35-1.12 0-1.85.92-1.85 2.34zm11.33-1.09c-.13-.74-.7-1.29-1.65-1.29-1.1 0-1.83.92-1.83 2.37 0 1.48.73 2.38 1.84 2.38.89 0 1.47-.45 1.63-1.26h1.38c-.16 1.47-1.33 2.45-3.03 2.45-1.99 0-3.29-1.36-3.29-3.58 0-2.17 1.3-3.58 3.28-3.58 1.79 0 2.9 1.13 3.02 2.49h-1.36zm2.29 2.58c0-1.22.93-1.94 2.67-2.05l1.86-.11v-.53c0-.79-.53-1.22-1.44-1.22-.75 0-1.3.38-1.42.98h-1.34c.04-1.25 1.21-2.16 2.79-2.16 1.71 0 2.82.89 2.82 2.28v4.78h-1.37v-1.14h-.04c-.39.75-1.26 1.25-2.2 1.25-1.39 0-2.35-.86-2.35-2.1zm4.53-.62v-.54l-1.68.1c-.93.05-1.42.41-1.42 1.01 0 .58.51.99 1.31.99 1.02 0 1.78-.68 1.78-1.58zm5.62-4.45c1.54 0 2.65.85 2.68 2.09h-1.34c-.06-.62-.59-1-1.38-1-.78 0-1.3.36-1.3.9 0 .42.34.69 1.06.87l1.17.27c1.4.34 1.94.86 1.94 1.88 0 1.26-1.19 2.12-2.9 2.12-1.65 0-2.75-.85-2.86-2.12h1.42c.1.67.64 1.03 1.51 1.03.85 0 1.39-.36 1.39-.91 0-.44-.27-.67-1-.85l-1.25-.31c-1.26-.31-1.9-.95-1.9-1.92 0-1.24 1.11-2.08 2.74-2.08zm6.01-1.58V20h1.32v1.136h-1.33v3.85c0 .598.26.876.85.876.14 0 .38-.02.47-.033v1.12c-.16.04-.48.06-.8.06-1.42 0-1.97-.53-1.97-1.89v-4h-1.01V20h1.01v-1.65h1.44zm5.17 1.57c1.54 0 2.65.85 2.68 2.09h-1.34c-.06-.62-.58-1-1.38-1-.78 0-1.3.36-1.3.9 0 .42.34.69 1.07.87l1.17.27c1.41.34 1.94.85 1.94 1.88 0 1.26-1.2 2.12-2.9 2.12-1.65 0-2.76-.85-2.86-2.12h1.42c.1.67.64 1.03 1.5 1.03.854 0 1.39-.36 1.39-.91 0-.44-.26-.67-.99-.85l-1.24-.31c-1.267-.308-1.9-.95-1.9-1.92 0-1.235 1.103-2.08 2.73-2.08z"/>
  <linearGradient id="b" x1="17.491" x2="17.491" y1="5.811" y2="28.204" gradientUnits="userSpaceOnUse">
    <stop offset="0" stop-color="#F452FF"/>
    <stop offset="1" stop-color="#832BC1"/>
  </linearGradient>
  <path fill="url(#b)" fill-rule="evenodd" d="M28.244 25.22c-.218.553-.72 1.33-1.432 1.88-.41.317-.902.62-1.577.82-.72.212-1.604.284-2.706.284H12.45c-1.102 0-1.987-.072-2.706-.285-.674-.2-1.165-.51-1.577-.82-.713-.55-1.216-1.33-1.433-1.88-.438-1.12-.443-2.38-.443-3.18V11.97c0-.797.01-2.06.45-3.175.22-.553.72-1.33 1.43-1.88.41-.316.9-.62 1.58-.82.72-.212 1.61-.284 2.71-.284h10.08c1.1 0 1.99.08 2.71.29.68.2 1.17.51 1.58.82.71.55 1.22 1.33 1.43 1.88.44 1.12.45 2.38.45 3.18v10.07c0 .8 0 2.06-.44 3.18z" clip-rule="evenodd"/>
  <path fill="none" fill-rule="evenodd" d="M28.244 25.22c-.218.553-.72 1.33-1.432 1.88-.41.317-.902.62-1.577.82-.72.212-1.604.284-2.706.284H12.45c-1.102 0-1.987-.072-2.706-.285-.674-.2-1.165-.51-1.577-.82-.713-.55-1.216-1.33-1.433-1.88-.438-1.12-.443-2.38-.443-3.18V11.97c0-.797.01-2.06.45-3.175.22-.553.72-1.33 1.43-1.88.41-.316.9-.62 1.58-.82.72-.212 1.61-.284 2.71-.284h10.08c1.1 0 1.99.08 2.71.29.68.2 1.17.51 1.58.82.71.55 1.22 1.33 1.43 1.88.44 1.12.45 2.38.45 3.18v10.07c0 .8 0 2.06-.44 3.18z" clip-rule="evenodd"/>
  <path fill="#FFF" d="M19.114 18.682c-.336-.354-.926-.582-1.623-.582-.69 0-1.28.227-1.62.582-.17.185-.27.375-.29.645-.05.523-.02.974.04 1.694.06.69.17 1.61.32 2.54.11.67.19 1.02.27 1.28.13.42.59.78 1.31.78.73 0 1.19-.36 1.31-.78.08-.25.16-.61.27-1.28.15-.93.26-1.84.32-2.53.06-.72.1-1.17.04-1.69-.03-.27-.12-.46-.29-.64zm-3.453-3.157c0 1.012.82 1.833 1.84 1.833s1.84-.82 1.84-1.833c0-1.012-.82-1.833-1.83-1.833s-1.83.82-1.83 1.833zm1.81-7.232c-4.28.012-7.79 3.49-7.85 7.775-.04 3.472 2.18 6.442 5.27 7.53.08.026.15-.036.14-.115-.04-.27-.08-.54-.11-.807-.01-.094-.07-.175-.16-.213-2.44-1.07-4.15-3.522-4.12-6.363.04-3.73 3.08-6.77 6.81-6.8 3.81-.03 6.93 3.062 6.93 6.867 0 2.813-1.7 5.236-4.13 6.296-.08.038-.14.12-.16.213-.03.266-.07.537-.11.806-.01.08.07.14.14.115 3.07-1.078 5.27-4.002 5.27-7.43 0-4.35-3.54-7.887-7.9-7.874zm-.14 3.613c2.43-.094 4.44 1.855 4.44 4.264 0 1.225-.52 2.33-1.35 3.11-.07.067-.1.16-.1.257.02.293.01.578-.01.9 0 .085.09.14.17.09 1.39-.95 2.31-2.548 2.31-4.357 0-2.978-2.48-5.388-5.48-5.27-2.79.107-5.03 2.408-5.06 5.202-.02 1.837.9 3.464 2.31 4.427.07.04.17-.01.16-.1-.02-.32-.02-.61 0-.9 0-.1-.03-.19-.1-.26-.85-.81-1.38-1.96-1.34-3.23.06-2.24 1.86-4.07 4.1-4.15z"/>
</svg>
