<svg xmlns="http://www.w3.org/2000/svg" id="US" xmlns:xlink="http://www.w3.org/1999/xlink" viewBox="-12 131.8 109.2 40">
  <style>
    .st0{fill:#A6A6A6;} .st1{fill:#FFFFFF;stroke:#FFFFFF;stroke-width:0.35;stroke-miterlimit:10;} .st2{fill:none;} .st3{fill:#EF4A23;} .st4{fill:url(#SVGID_1_);} .st5{opacity:0.1;fill:#FFFFFF;enable-background:new ;} .st6{fill:#FFD017;} .st7{fill:#F58B1F;} .st8{fill:url(#SVGID_2_);} .st9{fill:#F9F9F9;} .st10{opacity:0.3;fill:#FFFFFF;enable-background:new ;} .st11{enable-background:new ;} .st12{fill:#F2F2F2;stroke:#F2F2F2;stroke-width:0.2;stroke-miterlimit:10;} .st13{fill:#F2F2F2;enable-background:new ;}
  </style>
  <path d="M87.7 131.8H-4.5c-.7 0-1.3.1-2 .2s-1.3.3-1.9.6c-.6.3-1.1.7-1.6 1.2s-.9 1-1.2 1.6c-.3.6-.5 1.2-.6 1.9-.1.7-.2 1.3-.2 2v24.9c0 .7.1 1.3.2 2s.3 1.3.6 1.9c.3.6.7 1.1 1.2 1.6s1 .9 1.6 1.2c.6.3 1.2.5 1.9.6.7.1 1.3.2 2 .2h94.2c.7 0 1.3-.1 2-.2s1.3-.3 1.9-.6c.6-.3 1.1-.7 1.6-1.2s.9-1 1.2-1.6c.3-.6.5-1.2.6-1.9.1-.7.2-1.3.2-2v-24.9c0-.7-.1-1.3-.2-2s-.3-1.3-.6-1.9c-.3-.6-.7-1.1-1.2-1.6s-1-.9-1.6-1.2c-.6-.3-1.2-.5-1.9-.6-.7-.1-1.3-.2-2-.2h-2z" class="st0"/>
  <path d="M-3.6 170.9h-.9c-.6 0-1.2 0-1.9-.2-.6-.1-1.2-.3-1.7-.5-.5-.3-1-.6-1.4-1-.4-.4-.8-.9-1-1.4-.3-.5-.4-1-.5-1.7-.1-.7-.2-1.4-.2-1.9v-24.9c0-.5 0-1.2.2-1.9.1-.6.3-1.2.5-1.7.3-.5.6-1 1-1.4.4-.4.9-.8 1.4-1 .5-.3 1.1-.4 1.7-.5.7-.1 1.4-.2 1.9-.2h94.2c.5 0 1.2 0 1.9.2.6.1 1.1.3 1.7.5.5.3 1 .6 1.4 1 .4.4.8.9 1 1.4.3.5.4 1.1.5 1.6.1.6.2 1.3.2 1.9v24.9c0 .6-.1 1.2-.2 1.9-.1.6-.3 1.2-.5 1.7-.3.5-.6 1-1 1.4-.4.4-.9.8-1.4 1-.5.3-1 .4-1.7.6-.6.1-1.3.1-1.9.2H-3.6z"/>
  <path d="M23.3 160.2h-1.4v-10.6h3.6c.9 0 1.7.3 2.3.9.7.6 1 1.4 1 2.3 0 .9-.3 1.7-1 2.3-.7.6-1.4.9-2.3.9h-2.3v4.2zm0-5.6h2.3c.6 0 1-.2 1.4-.6.3-.4.5-.8.5-1.3s-.2-.9-.5-1.3-.8-.6-1.4-.6h-2.3v3.8zm8.5 5.6h-1.4v-10.6h1.4v10.6zm4.2.3c-.8 0-1.4-.2-1.9-.7-.5-.4-.8-1-.8-1.8s.3-1.4.9-1.9c.6-.5 1.4-.7 2.3-.7.8 0 1.5.1 2 .4v-.2c0-.5-.2-1-.5-1.3-.4-.3-.8-.5-1.4-.5-.4 0-.8.1-1.1.3-.3.2-.5.4-.7.8l-1.2-.5c.2-.4.5-.8 1-1.2.5-.4 1.1-.6 2-.6.9 0 1.7.3 2.3.8.6.5.9 1.3.9 2.3v4.4h-1.3v-1h-.1c-.6 1-1.4 1.4-2.4 1.4zm.2-1.3c.6 0 1.1-.2 1.5-.6.5-.4.7-.9.7-1.5-.4-.3-1-.5-1.7-.5s-1.2.1-1.5.4c-.3.3-.5.6-.5 1s.2.6.5.8c.2.3.6.4 1 .4zm6.9 4.2h-1.4l1.7-3.7-3-6.8h1.5l2.2 5.2 2.1-5.2h1.5l-4.6 10.5zm9.5-3.2v-10.6H54l3.7 6.5h.1l3.7-6.5h1.4v10.6h-1.4l.1-8.1h-.1l-3.3 5.8h-.8l-3.3-5.8H54l.1 8.1h-1.5zm18.6 0h-1.3v-1h-.1c-.2.3-.5.6-1 .9-.4.2-.9.4-1.4.4-.9 0-1.6-.3-2.1-.8-.5-.6-.7-1.3-.7-2.2V153H66v4.2c0 1.4.6 2 1.8 2 .6 0 1-.2 1.4-.7.4-.5.5-1 .5-1.6v-4h1.4v7.3zm4.6.3c-.8 0-1.5-.2-2-.6-.5-.4-.9-.9-1.2-1.5l1.2-.5c.4.9 1 1.4 2 1.4.4 0 .8-.1 1-.3.3-.2.4-.4.4-.7 0-.5-.3-.8-1-1l-1.5-.4c-.5-.1-.9-.3-1.3-.7-.4-.3-.6-.8-.6-1.3 0-.6.3-1.2.9-1.6.6-.4 1.2-.6 2-.6.6 0 1.2.1 1.7.4.5.3.9.7 1.1 1.3l-1.2.5c-.3-.6-.8-1-1.7-1-.4 0-.7.1-1 .3-.3.2-.4.4-.4.7 0 .4.3.7 1 .8l1.4.3c.7.2 1.2.4 1.5.8.3.4.5.8.5 1.3 0 .7-.3 1.2-.8 1.6-.4.6-1.1.8-2 .8zm5.8-9.4c-.2.2-.4.3-.7.3-.3 0-.5-.1-.7-.3-.2-.2-.3-.4-.3-.7 0-.3.1-.5.3-.7.2-.2.4-.3.7-.3.3 0 .5.1.7.3.2.2.3.4.3.7 0 .3-.1.5-.3.7zm0 9.1h-1.4V153h1.4v7.2zm5.3.3c-1.1 0-2-.4-2.7-1.1-.7-.7-1.1-1.7-1.1-2.8 0-1.1.4-2 1.1-2.8.7-.7 1.6-1.1 2.7-1.1.8 0 1.5.2 2 .6.5.4.9.9 1.2 1.5l-1.2.5c-.4-.9-1.1-1.4-2-1.4-.6 0-1.1.2-1.6.7-.5.5-.7 1.1-.7 1.9s.2 1.4.7 1.9c.5.5 1 .7 1.6.7 1 0 1.7-.5 2.1-1.4l1.2.5c-.2.6-.6 1.1-1.2 1.5-.6.6-1.2.8-2.1.8z" class="st1"/>
  <path d="M-5.9 139.7h24v24h-24z" class="st2"/>
  <path d="M-5.9 139.7h24v24h-24z" class="st2"/>
  <path d="M15.4 150.5L-1.3 141c-.7-.4-1.3-.4-1.7 0-.3.3-.4.7-.4 1.2v18.9c0 .6.2 1 .4 1.2.4.4 1 .4 1.7 0l16.7-9.5c1.2-.5 1.2-1.6 0-2.3z" class="st3"/>
  <linearGradient id="SVGID_1_" x1="6.418" x2="6.418" y1="-122.683" y2="-100.734" gradientUnits="userSpaceOnUse" gradientTransform="matrix(1 0 0 -1 0 40)">
    <stop offset="0" stop-color="#FFF" stop-opacity="0"/>
    <stop offset="1" stop-color="#FFF" stop-opacity=".1"/>
  </linearGradient>
  <path d="M15.4 150.5L-1.3 141c-.7-.4-1.3-.4-1.7 0-.3.3-.4.7-.4 1.2v18.9c0 .6.2 1 .4 1.2.4.4 1 .4 1.7 0l16.7-9.5c1.2-.5 1.2-1.6 0-2.3z" class="st4"/>
  <path d="M15.4 150.6l-16.7-9.5c-1.2-.7-2.2-.1-2.2 1.3v-.1c0-1.4 1-1.9 2.2-1.3l16.7 9.5c.6.4.9.8.9 1.3 0-.4-.3-.9-.9-1.2z" class="st5"/>
  <path d="M13.7 153.9c.2-.7.3-1.4.3-2.2 0-4.4-3.6-8-8-8s-8 3.6-8 8c0 3.7 2.5 6.8 5.9 7.7l9.8-5.5z" class="st6"/>
  <circle cx="6" cy="151.7" r="5" class="st7"/>
  <linearGradient id="SVGID_2_" x1="7.084" x2="8.948" y1="-113.532" y2="-116.76" gradientUnits="userSpaceOnUse" gradientTransform="matrix(1 0 0 -1 0 40)">
    <stop offset="0" stop-color="#971C1F" stop-opacity="0"/>
    <stop offset="1" stop-color="#971C1F" stop-opacity=".1"/>
  </linearGradient>
  <path d="M6 143.7c-4.4 0-8 3.6-8 8 0 3.7 2.5 6.8 5.9 7.7l9.8-5.6c.2-.7.3-1.4.3-2.2 0-4.3-3.5-7.9-8-7.9z" class="st8"/>
  <image width="392" height="504" xlink:href="F7D17EE90C0A48DE.png" transform="matrix(.01468 0 0 .01487 3.422 148.236)" overflow="visible" opacity=".15"/>
  <path d="M6 149.1v3.1c-.2-.1-.4-.2-.6-.2-.6 0-1.2.5-1.2 1.2 0 .6.5 1.2 1.2 1.2.6 0 1.2-.5 1.2-1.2v-2.8h1.1v-1.2H6z" class="st9"/>
  <path d="M6 143.9c4.4 0 8 3.6 8 7.9v-.1c0-4.4-3.6-8-8-8s-8 3.6-8 8v.1c.1-4.4 3.6-7.9 8-7.9z" class="st10"/>
  <path d="M21.7 146v-5.5h.7v4.8h2.4v.7h-3.1zm4.8-4.8c-.1.1-.2.1-.4.1-.1 0-.3 0-.4-.1-.1-.1-.1-.2-.1-.4 0-.1 0-.3.1-.4.1-.1.2-.1.4-.1.1 0 .3 0 .4.1s.1.2.1.4 0 .3-.1.4zm0 4.7h-.7v-3.8h.7v3.8zm2.6.2c-.4 0-.8-.1-1-.3-.3-.2-.5-.5-.6-.8l.6-.3c.2.5.5.7 1 .7.2 0 .4 0 .5-.1.1-.1.2-.2.2-.4s-.2-.4-.5-.5l-.8-.2c-.2-.1-.5-.2-.7-.3-.2-.2-.3-.4-.3-.7 0-.3.1-.6.4-.8.3-.2.6-.3 1-.3.3 0 .6.1.9.2.3.2.4.4.6.6l-.6.3c-.1-.3-.4-.5-.9-.5-.2 0-.4 0-.5.1-.1.1-.2.2-.2.4s.2.4.5.4l.7.2c.4.1.6.2.8.4.2.2.3.4.3.7 0 .3-.1.6-.4.8-.2.2-.6.4-1 .4zm4-.1c-.4 0-.7-.1-.9-.3-.2-.2-.3-.5-.3-.9v-2h-.7v-.6h.7V141h.7v1.2h.9v.6h-.9v1.9c0 .4.2.6.5.6.1 0 .2 0 .3-.1l.2.6c-.1.2-.3.2-.5.2zm3.1.1c-.6 0-1-.2-1.4-.6-.4-.4-.5-.9-.5-1.4 0-.5.2-1 .5-1.4.3-.4.8-.6 1.3-.6.6 0 1 .2 1.3.5.3.4.5.8.5 1.5v.1h-3c0 .4.1.7.4.9.2.2.5.3.8.3.5 0 .8-.2 1-.6l.6.3c-.1.3-.3.5-.6.7s-.5.3-.9.3zm1-2.5c0-.2-.1-.4-.3-.6-.2-.2-.5-.3-.8-.3-.3 0-.5.1-.7.2-.2.2-.3.4-.4.7h2.2zm2.4-1.4v.5c.1-.2.3-.3.5-.5.2-.1.5-.2.7-.2.5 0 .8.1 1.1.4.2.3.4.7.4 1.2v2.3h-.7v-2.2c0-.7-.3-1-.9-1-.3 0-.5.1-.7.3-.2.2-.3.5-.3.8v2.1H39v-3.8h.6zm6.1.4c.4-.4.8-.6 1.4-.6.6 0 1 .2 1.4.6.4.4.5.9.5 1.4 0 .6-.2 1.1-.5 1.4-.4.4-.8.6-1.4.6-.6 0-1-.2-1.4-.6-.4-.4-.5-.9-.5-1.4-.1-.5.1-1 .5-1.4zm.5 2.4c.2.2.5.4.9.4.3 0 .6-.1.9-.4.2-.2.4-.6.4-1s-.1-.7-.4-1c-.2-.2-.5-.4-.9-.4-.3 0-.6.1-.9.4-.2.2-.4.6-.4 1 0 .5.2.8.4 1zm4.3-2.8v.5c.1-.2.3-.3.5-.5.2-.1.5-.2.7-.2.5 0 .8.1 1.1.4.2.3.4.7.4 1.2v2.3h-.7v-2.2c0-.7-.3-1-.9-1-.3 0-.5.1-.7.3-.2.2-.3.5-.3.8v2.1h-.7v-3.8h.6z" class="st11 st12"/>
  <path d="M69.7 141.9c-1.2 0-2.1.9-2.1 2.1 0 1.2.9 2.1 2.1 2.1 1.2 0 2.1-.9 2.1-2.1 0-1.2-.9-2.1-2.1-2.1zm0 3.3c-.6 0-1.2-.5-1.2-1.3 0-.7.5-1.3 1.2-1.3s1.2.5 1.2 1.3-.6 1.3-1.2 1.3zm-4.6-3.3c-1.2 0-2.1.9-2.1 2.1 0 1.2.9 2.1 2.1 2.1 1.2 0 2.1-.9 2.1-2.1 0-1.2-.9-2.1-2.1-2.1zm0 3.3c-.6 0-1.2-.5-1.2-1.3 0-.7.5-1.3 1.2-1.3s1.2.5 1.2 1.3-.5 1.3-1.2 1.3zm-5.4-2.7v.9h2.1c-.1.5-.2.9-.5 1.1-.3.3-.8.6-1.6.6-1.3 0-2.3-1-2.3-2.4 0-1.3 1-2.4 2.3-2.4.7 0 1.2.3 1.6.6l.6-.6c-.5-.5-1.2-.9-2.2-.9-1.8 0-3.3 1.5-3.3 3.2 0 1.8 1.5 3.2 3.3 3.2 1 0 1.7-.3 2.3-.9.6-.6.8-1.4.8-2.1v-.6h-3.1zm22.2.7c-.2-.5-.7-1.3-1.8-1.3s-2 .8-2 2.1c0 1.2.9 2.1 2.1 2.1 1 0 1.5-.6 1.7-.9l-.7-.5c-.2.3-.6.6-1 .6-.5 0-.8-.2-1-.6l2.8-1.2-.1-.3zm-2.8.7c0-.8.6-1.2 1.1-1.2.4 0 .7.2.8.4l-1.9.8zm-2.3 2h.9v-6.1h-.9v6.1zm-1.5-3.5c-.2-.2-.6-.5-1.1-.5-1 0-2 .9-2 2.1 0 1.2 1 2.1 2 2.1.5 0 .9-.2 1.1-.5v.3c0 .8-.4 1.2-1.1 1.2-.6 0-.9-.4-1-.7l-.8.3c.2.6.8 1.2 1.8 1.2 1.1 0 2-.6 2-2.2V142h-.9v.4zm-1 2.8c-.6 0-1.2-.5-1.2-1.3 0-.7.5-1.3 1.2-1.3.6 0 1.1.5 1.1 1.3s-.5 1.3-1.1 1.3z" class="st13"/>
</svg>
