<?xml version="1.0" encoding="UTF-8"?>
<svg width="45px" height="45px" viewBox="0 0 45 45" xmlns="http://www.w3.org/2000/svg" xmlns:xlink="http://www.w3.org/1999/xlink" version="1.1">
 <!-- Generated by Pixelmator Pro 2.2 -->
 <path id="Ellipse" d="M37 22 C37 13.716 30.284 7 22 7 13.716 7 7 13.716 7 22 7 30.284 13.716 37 22 37 30.284 37 37 30.284 37 22 Z" fill="#ffffff" fill-opacity="1" stroke="none"/>
 <g id="Page-1">
  <g id="linkedin">
   <path id="Shape" d="M22.502 0 C10.073 0 0 10.073 0 22.499 0 34.927 10.073 45 22.502 45 34.927 45 45 34.927 45 22.499 45 10.073 34.927 0 22.502 0 Z M17.423 30.378 L13.273 30.378 13.273 17.926 17.423 17.926 Z M15.349 15.575 C13.962 15.575 12.859 14.468 12.859 13.091 12.859 11.708 13.963 10.599 15.349 10.599 16.728 10.599 17.83 11.708 17.83 13.091 17.83 14.468 16.728 15.575 15.349 15.575 Z M32.634 30.378 L28.483 30.378 28.483 23.044 C28.483 21.939 27.517 20.972 26.404 20.972 25.302 20.972 24.335 21.939 24.335 23.044 L24.335 30.378 20.184 30.378 20.184 17.926 24.335 17.926 24.335 19.587 C25.025 18.48 26.545 17.647 27.79 17.647 30.419 17.647 32.635 19.863 32.635 22.49 L32.635 30.378 Z" fill="#000000" fill-opacity="1" stroke="none"/>
  </g>
 </g>
</svg>
