<svg xmlns="http://www.w3.org/2000/svg" viewBox="0 0 351.374 90"><path fill="#777878" d="M351.345 24.023c0-.873 0-1.746-.011-2.62-.064-1.905-.177-3.813-.524-5.694a18.942 18.942 0 0 0-1.765-5.416 18.34 18.34 0 0 0-3.363-4.612 18.303 18.303 0 0 0-4.599-3.35 19.144 19.144 0 0 0-5.43-1.786c-1.868-.339-3.781-.452-5.686-.5-.871-.013-1.757-.029-2.625-.037C326.321 0 325.284 0 324.263 0H27.122c-1.04 0-2.072 0-3.112.005-.871.008-1.736.024-2.614.037-1.895.05-3.81.164-5.7.503-1.905.336-3.675.905-5.409 1.786a18.233 18.233 0 0 0-4.604 3.353 17.691 17.691 0 0 0-3.353 4.609C1.446 12.024.883 13.802.552 15.709c-.344 1.881-.46 3.789-.511 5.694-.025.874-.028 1.747-.041 2.62V65.986c.013.881.016 1.741.042 2.62.048 1.908.167 3.816.511 5.697.331 1.908.894 3.691 1.778 5.416a17.691 17.691 0 0 0 3.35 4.594 17.74 17.74 0 0 0 4.607 3.35c1.733.892 3.503 1.453 5.409 1.797 1.889.341 3.805.452 5.7.505.878.019 1.744.029 2.614.029C25.05 90 26.082 90 27.125 90h297.138c1.021 0 2.059 0 3.083-.005.868 0 1.752-.011 2.625-.029 1.905-.053 3.818-.164 5.686-.505 1.91-.344 3.683-.905 5.43-1.797a17.745 17.745 0 0 0 4.599-3.35 18.177 18.177 0 0 0 3.363-4.594c.871-1.725 1.437-3.509 1.765-5.416.347-1.881.46-3.789.524-5.697.011-.878.011-1.738.011-2.62.026-1.035.026-2.061.026-3.114V27.13c-.004-1.04-.004-2.075-.03-3.107z"/><path fill="#FFF" d="M349.609 62.873c0 1.037 0 2.051-.024 3.114 0 .868 0 1.728-.013 2.567-.048 1.643-.151 3.572-.495 5.451a17.226 17.226 0 0 1-1.596 4.908 16.696 16.696 0 0 1-3.048 4.17 16.381 16.381 0 0 1-4.154 3.024c-1.506.767-3.125 1.299-4.935 1.627-1.879.331-3.797.426-5.411.476-.868.016-1.736.029-2.601.029-1.021.005-2.056.005-3.072.005H27.122c-1.037 0-2.067 0-3.114-.005-.86 0-1.712-.011-2.561-.029-1.633-.048-3.554-.143-5.446-.476-1.805-.325-3.413-.86-4.916-1.627a16.348 16.348 0 0 1-4.168-3.04 16.264 16.264 0 0 1-3.022-4.146c-.767-1.511-1.294-3.117-1.617-4.935-.355-1.947-.442-3.919-.479-5.432a68.118 68.118 0 0 1-.034-1.813l-.011-.754v-41.94l.016-.789c.005-.598.013-1.201.034-1.813.037-1.5.124-3.472.482-5.432.318-1.813.844-3.419 1.617-4.927a16.053 16.053 0 0 1 3.027-4.16 16.51 16.51 0 0 1 4.16-3.03 17.394 17.394 0 0 1 4.911-1.625c1.932-.341 3.921-.429 5.424-.476l2.585-.035c1.043-.008 2.075-.008 3.109-.008h297.138c1.016 0 2.051 0 3.067.008l.143.005 2.445.032c1.521.045 3.511.135 5.427.476 1.789.315 3.4.849 4.935 1.625a16.236 16.236 0 0 1 4.157 3.03 16.675 16.675 0 0 1 3.035 4.157 16.988 16.988 0 0 1 1.603 4.945c.344 1.855.447 3.789.495 5.411.013.86.013 1.723.013 2.617.024 1.024.024 2.04.024 3.069v35.745h.008z"/><path d="M118.594 46.852c4.922 0 8.367 3.393 8.367 8.332 0 4.957-3.516 8.367-8.49 8.367H112.6v8.666h-3.938V46.852h9.932zM112.6 60.246h4.957c3.41 0 5.379-1.846 5.379-5.045s-1.951-5.027-5.379-5.027H112.6v10.072zM128.367 62.672c0-5.994 3.533-9.791 9.035-9.791s9.018 3.779 9.018 9.791-3.498 9.773-9.018 9.773-9.035-3.761-9.035-9.773zm14.186 0c0-4.166-1.916-6.627-5.15-6.627s-5.168 2.479-5.168 6.627c0 4.166 1.934 6.609 5.168 6.609s5.15-2.443 5.15-6.609zM162.153 59.649c-.352-2.021-1.934-3.551-4.553-3.551-3.076 0-5.115 2.566-5.115 6.574 0 4.113 2.074 6.574 5.133 6.574 2.479 0 4.113-1.213 4.57-3.445h3.639c-.439 3.99-3.639 6.645-8.227 6.645-5.414 0-8.982-3.727-8.982-9.773 0-5.941 3.551-9.791 8.947-9.791 4.869 0 7.893 3.094 8.227 6.768h-3.639zM180.469 53.127h4.482l-7.98 8.227 8.262 10.863h-4.395l-6.592-8.543-1.652 1.617v6.926h-3.814V45.709h3.814v15.662h.018l7.857-8.244zM202.723 66.627c-.545 3.428-3.902 5.818-8.191 5.818-5.537 0-8.982-3.727-8.982-9.703s3.48-9.861 8.824-9.861c5.238 0 8.543 3.639 8.543 9.422v1.336h-13.518v.229c0 3.305 2.074 5.484 5.203 5.484 2.215 0 3.955-1.055 4.482-2.725h3.639zm-13.307-5.695h9.686c-.088-2.971-1.969-4.939-4.746-4.939-2.742-.001-4.729 2.003-4.94 4.939zM210.914 48.838v4.289h3.656v3.006h-3.656v10.67c0 1.652.738 2.426 2.338 2.426.404 0 1.055-.053 1.301-.088v3.006c-.422.105-1.318.193-2.145.193-3.814 0-5.291-1.459-5.291-5.15V56.133h-2.637v-3.006h2.637v-4.289h3.797zM225.557 59.526c0-8.033 4.535-13.096 11.619-13.096 5.748 0 10.09 3.533 10.758 8.824h-3.902c-.703-3.252-3.41-5.379-6.855-5.379-4.605 0-7.594 3.779-7.594 9.65 0 5.924 2.953 9.668 7.611 9.668 3.533 0 6.047-1.811 6.838-4.869h3.92c-.967 5.238-4.939 8.314-10.775 8.314-7.12.001-11.62-5.026-11.62-13.112zM250.272 66.75c0-3.34 2.584-5.273 7.295-5.572l5.15-.299v-1.477c0-2.18-1.459-3.375-4.008-3.375-2.074 0-3.586 1.072-3.92 2.725h-3.568c.105-3.375 3.305-5.871 7.594-5.871 4.658 0 7.664 2.461 7.664 6.24v13.096h-3.639v-3.182h-.088c-1.055 2.074-3.428 3.375-6.029 3.375-3.815 0-6.451-2.25-6.451-5.66zm12.445-1.705v-1.494l-4.641.316c-2.602.158-3.955 1.125-3.955 2.812 0 1.635 1.424 2.689 3.621 2.689 2.831.001 4.975-1.809 4.975-4.323zM277.395 52.899c4.184 0 7.207 2.355 7.295 5.678h-3.586c-.158-1.688-1.617-2.742-3.797-2.742-2.162 0-3.604 1.002-3.604 2.514 0 1.16.949 1.951 2.971 2.443l3.164.756c3.85.932 5.273 2.32 5.273 5.133 0 3.41-3.234 5.766-7.857 5.766-4.447 0-7.488-2.303-7.77-5.748h3.762c.299 1.828 1.775 2.83 4.201 2.83 2.373 0 3.867-.984 3.867-2.531 0-1.213-.756-1.846-2.76-2.355l-3.41-.844c-3.445-.844-5.15-2.602-5.15-5.238 0-3.36 3.006-5.662 7.401-5.662zM293.145 48.838v4.289h3.656v3.006h-3.656v10.67c0 1.652.738 2.426 2.338 2.426.404 0 1.055-.053 1.301-.088v3.006c-.422.105-1.318.193-2.145.193-3.814 0-5.291-1.459-5.291-5.15V56.133h-2.637v-3.006h2.637v-4.289h3.797zM307.102 52.899c4.184 0 7.207 2.355 7.295 5.678h-3.586c-.158-1.688-1.617-2.742-3.797-2.742-2.162 0-3.604 1.002-3.604 2.514 0 1.16.949 1.951 2.971 2.443l3.164.756c3.85.932 5.273 2.32 5.273 5.133 0 3.41-3.234 5.766-7.857 5.766-4.447 0-7.488-2.303-7.77-5.748h3.762c.299 1.828 1.775 2.83 4.201 2.83 2.373 0 3.867-.984 3.867-2.531 0-1.213-.756-1.846-2.76-2.355l-3.41-.844c-3.445-.844-5.15-2.602-5.15-5.238 0-3.36 3.006-5.662 7.401-5.662z"/><g fill="#777878"><path d="M117.297 29.984h-6.446l-1.628 4.638H107.1l5.975-16.206h1.999l5.975 16.206h-2.123l-1.629-4.638zm-5.851-1.718h5.256l-2.538-7.232h-.18l-2.538 7.232zM122.362 28.569c0-3.796 2.01-6.267 5.087-6.267 1.685 0 3.111.797 3.796 2.123h.168v-6.716h1.932v16.913h-1.842V32.69h-.18c-.764 1.348-2.201 2.145-3.875 2.145-3.099.001-5.086-2.459-5.086-6.266zm1.999 0c0 2.83 1.325 4.526 3.538 4.526 2.201 0 3.56-1.729 3.56-4.526 0-2.774-1.37-4.526-3.56-4.526-2.202 0-3.538 1.707-3.538 4.526zM136.49 28.569c0-3.796 2.01-6.267 5.087-6.267 1.685 0 3.111.797 3.796 2.123h.168v-6.716h1.932v16.913h-1.842V32.69h-.18c-.764 1.348-2.201 2.145-3.875 2.145-3.099.001-5.086-2.459-5.086-6.266zm1.999 0c0 2.83 1.325 4.526 3.538 4.526 2.201 0 3.56-1.729 3.56-4.526 0-2.774-1.37-4.526-3.56-4.526-2.202 0-3.538 1.707-3.538 4.526zM163.117 34.622h-1.977l-4.481-12.106h2.066l3.313 9.973h.18l3.313-9.973h2.066l-4.48 12.106zM169.844 18.709c0-.741.606-1.348 1.348-1.348s1.348.606 1.348 1.348-.606 1.348-1.348 1.348-1.348-.607-1.348-1.348zm.382 3.807h1.932v12.106h-1.932V22.516zM175.122 31.231c0-2.167 1.595-3.414 4.413-3.583l3.493-.213v-1.101c0-1.494-.933-2.313-2.74-2.313-1.449 0-2.459.55-2.729 1.505h-1.954c.258-1.943 2.167-3.223 4.75-3.223 2.953 0 4.604 1.516 4.604 4.032v8.288h-1.842v-1.786h-.18c-.786 1.292-2.111 1.999-3.729 1.999-2.345 0-4.086-1.393-4.086-3.605zm7.907-1.123v-1.112l-3.257.213c-1.842.124-2.65.764-2.65 1.977 0 1.235 1.044 1.954 2.448 1.954 1.987 0 3.459-1.303 3.459-3.032z"/></g><g><path fill="#F44336" d="M74.735 23.269c-.574-1.463-1.905-3.525-3.789-4.975-1.09-.836-2.389-1.638-4.173-2.167-1.902-.564-4.244-.754-7.16-.754H32.949c-2.916 0-5.258.19-7.16.754-1.786.529-3.085 1.331-4.173 2.167-1.884 1.453-3.212 3.511-3.789 4.975-1.162 2.948-1.172 6.292-1.172 8.399v26.664c0 2.106.013 5.451 1.172 8.399.574 1.463 1.905 3.525 3.789 4.975 1.09.836 2.389 1.638 4.173 2.167 1.902.564 4.244.754 7.16.754h26.664c2.916 0 5.258-.19 7.16-.754 1.786-.529 3.085-1.328 4.173-2.167 1.884-1.453 3.212-3.511 3.789-4.975 1.162-2.948 1.172-6.292 1.172-8.399V31.668c0-2.106-.013-5.451-1.172-8.399z"/><g fill="#FFF"><path d="M45.765 60.253c-8.187-.274-14.739-6.996-14.739-15.25 0-8.376 6.882-15.259 15.258-15.258 8.253 0 14.975 6.552 15.25 14.739.01.29.25.519.54.519h4.439a.541.541 0 0 0 .541-.557c-.295-11.217-9.481-20.22-20.769-20.22-11.494 0-20.777 9.283-20.777 20.777 0 11.289 9.003 20.474 20.22 20.77a.541.541 0 0 0 .557-.541v-4.439a.54.54 0 0 0-.52-.54z"/><path d="M46.285 32.992a11.987 11.987 0 0 0-12.012 12.012c0 6.444 5.075 11.703 11.446 11.998a.541.541 0 0 0 .565-.541V52.94a.549.549 0 0 0-.502-.539 7.413 7.413 0 0 1-6.911-7.395 7.405 7.405 0 0 1 7.413-7.413 7.412 7.412 0 0 1 7.395 6.911.549.549 0 0 0 .539.502h3.522a.541.541 0 0 0 .541-.565c-.293-6.374-5.552-11.449-11.996-11.449z"/></g></g></svg>