<?xml version="1.0" encoding="UTF-8"?>
<svg width="34px" height="34px" viewBox="0 0 34 34" version="1.1" xmlns="http://www.w3.org/2000/svg" xmlns:xlink="http://www.w3.org/1999/xlink">
    <title>radioPublic</title>
    <defs>
        <linearGradient x1="0%" y1="0%" x2="0%" y2="100%" id="linearGradient-1">
            <stop stop-color="#FFFFFF" offset="0%"></stop>
            <stop stop-color="#FFFFFC" offset="100%"></stop>
        </linearGradient>
    </defs>
    <g id="Page-1" stroke="none" stroke-width="1" fill="none" fill-rule="evenodd">
        <g id="radioPublic" fill-rule="nonzero">
            <path d="M11.8538809,6.640625e-05 L22.1461191,6.640625e-05 C25.5594004,6.640625e-05 27.2659082,6.640625e-05 29.1031699,0.580955078 C31.1089375,1.31102539 32.6889746,2.8910625 33.4191113,4.89689648 C33.9999336,6.73402539 33.9999336,8.44059961 33.9999336,11.8538809 L33.9999336,22.1461191 C33.9999336,25.5594004 33.9999336,27.2659082 33.4191113,29.1031699 C32.6889746,31.1089375 31.1089375,32.6889746 29.1031699,33.4189785 C27.2659082,33.9999336 25.5594004,33.9999336 22.1461191,33.9999336 L11.8538809,33.9999336 C8.44059961,33.9999336 6.73402539,33.9999336 4.89689648,33.4189785 C2.8910625,32.6889746 1.31102539,31.1089375 0.580955078,29.1031699 C6.640625e-05,27.2659082 6.640625e-05,25.5594004 6.640625e-05,22.1461191 L6.640625e-05,11.8538809 C6.640625e-05,8.44059961 6.640625e-05,6.73402539 0.580955078,4.89689648 C1.31102539,2.8910625 2.8910625,1.31102539 4.89689648,0.580955078 C6.73402539,6.640625e-05 8.44059961,6.640625e-05 11.8538809,6.640625e-05 L11.8538809,6.640625e-05" id="path-1" fill="url(#linearGradient-1)"></path>
            <g id="editable" transform="translate(3.000000, 3.000000)">
                <path d="M29,27.302057 C23.619469,24.8843117 18.380531,29.7198024 13,27.302057 L13,2.69794295 C18.380531,5.11568827 23.619469,0.280197639 29,2.69794295 L29,27.302057 Z" id="Combined-Shape_3_" fill="#CE262F"></path>
                <path d="M17,25.1276596 C17,25.1276596 16.6774194,26.6170213 12,29 L12,15 L17,25.1276596 Z" id="Fill-6_1_" fill="#992226"></path>
                <path d="M17,25.302057 C11.3826087,22.8843117 5.76521739,27.7198024 0,25.302057 L0,0.697942954 C5.6173913,3.11568827 11.2347826,-1.71980236 17,0.697942954 L17,25.302057 Z" id="Combined-Shape_2_" fill="#CE262F"></path>
                <path d="M21.0223881,7.84748289 C19.6044776,8.13576049 18.1865672,8.56817688 16.7686567,8.71231568 L16.7686567,25 C17.761194,24.8558612 18.7537313,24.7117224 19.7462687,24.4234448 L19.7462687,17.9371988 C20.1716418,17.79306 20.738806,17.6489212 21.1641791,17.6489212 C23.2910448,17.2165048 24,15.9192556 24,13.9013125 L24,10.5861201 C24,8.42403808 23.5746269,7.27092769 21.0223881,7.84748289 Z M21.0223881,14.0454513 C21.0223881,14.6220065 21.0223881,14.9102841 20.3134328,15.1985617 C20.1716418,15.1985617 19.8880597,15.3427004 19.7462687,15.3427004 L19.7462687,10.7302589 C19.8880597,10.7302589 20.1716418,10.5861201 20.3134328,10.5861201 C21.0223881,10.4419813 21.0223881,10.7302589 21.0223881,11.3068141 L21.0223881,14.0454513 L21.0223881,14.0454513 Z M12.3731343,18.513754 L12.3731343,13.0364797 C12.3731343,11.8833693 11.5223881,11.3068141 11.0970149,11.3068141 C11.6641791,11.0185365 12.3731343,10.2978425 12.3731343,9.00059328 L12.3731343,6.4060949 C12.3731343,4.6764293 11.5223881,3.66745771 9.67910448,4.09987411 C8.11940299,4.38815171 6.55970149,4.8205681 5,4.9647069 L5,21.2523912 C5.99253731,21.1082524 6.98507463,20.9641136 7.97761194,20.675836 L7.97761194,13.7571737 C8.11940299,13.7571737 8.40298507,13.6130349 8.54477612,13.6130349 C9.1119403,13.4688961 9.25373134,13.6130349 9.25373134,14.3337289 L9.25373134,19.0903092 C9.25373134,19.8110032 9.39552239,20.0992808 9.53731343,20.2434196 C10.5298507,19.955142 11.5223881,19.8110032 12.5149254,19.8110032 L12.5149254,19.6668644 C12.5149254,19.5227256 12.3731343,19.234448 12.3731343,18.513754 L12.3731343,18.513754 Z M9.39552239,9.72128728 C9.39552239,10.4419813 9.1119403,10.7302589 8.54477612,10.8743977 C8.40298507,10.8743977 8.11940299,11.0185365 7.97761194,11.0185365 L7.97761194,6.83851129 C8.26119403,6.83851129 8.40298507,6.69437249 8.68656716,6.69437249 C9.25373134,6.55023369 9.39552239,6.69437249 9.39552239,7.41506649 L9.39552239,9.72128728 Z" id="Shape" fill="#FFFFFF"></path>
            </g>
        </g>
    </g>
</svg>