<svg xmlns="http://www.w3.org/2000/svg" viewBox="0 0 108.5 35">
  <style>
    .st0{display:none;} .st1{display:inline;} .st2{fill:#FFFFFF;} .st3{fill:#808080;} .st4{fill:#CE262F;} .st5{fill:#992226;} .st6{font-family:&apos;ITCAvantGardeStd-Bold&apos;;} .st7{font-size:7.3116px;} .st8{font-size:11.3523px;}
  </style>
  <g id="editable" class="st0 st1">
    <path d="M4.5 34.6c-2.3 0-4.1-1.9-4.1-4.1v-26C.4 2.2 2.3.4 4.5.4H104c2.3 0 4.1 1.9 4.1 4.1v26c0 2.3-1.9 4.1-4.1 4.1H4.5z" class="st2"/>
    <path d="M104 .7c2.1 0 3.8 1.7 3.8 3.8v26c0 2.1-1.7 3.8-3.8 3.8H4.5c-2.1 0-3.8-1.7-3.8-3.8v-26C.7 2.4 2.4.7 4.5.7H104m0-.7H4.5C2 0 0 2 0 4.5v26C0 33 2 35 4.5 35H104c2.5 0 4.5-2 4.5-4.5v-26c0-2.5-2-4.5-4.5-4.5z" class="st3"/>
    <path id="Combined-Shape_3_" d="M27.6 27.3c-3.8-1.7-7.5 1.7-11.3 0V10c3.8 1.7 7.5-1.7 11.3 0v17.3z" class="st4"/>
    <path id="Fill-6_1_" d="M19.4 24.7s-.2 1-3.1 2.6v-9.4l3.1 6.8z" class="st5"/>
    <path id="Combined-Shape_2_" d="M19.4 24.7c-3.8-1.7-7.6 1.7-11.5 0V7.4c3.8 1.7 7.6-1.7 11.5 0v17.3z" class="st4"/>
    <path d="M22.4 12.9c-1 .2-2 .5-3 .6v11.3c.7-.1 1.4-.2 2.1-.4v-4.5c.3-.1.7-.2 1-.2 1.5-.3 2-1.2 2-2.6v-2.3c0-1.5-.3-2.3-2.1-1.9zm0 4.3c0 .4 0 .6-.5.8-.1 0-.3.1-.4.1v-3.2c.1 0 .3-.1.4-.1.5-.1.5.1.5.5v1.9zm-6.1 3.1v-3.8c0-.8-.6-1.2-.9-1.2.4-.2.9-.7.9-1.6v-1.8c0-1.2-.6-1.9-1.9-1.6-1.1.2-2.2.5-3.3.6v11.3c.7-.1 1.4-.2 2.1-.4V17c.1 0 .3-.1.4-.1.4-.1.5 0 .5.5v3.3c0 .5.1.7.2.8.7-.2 1.4-.3 2.1-.3v-.1c0-.1-.1-.3-.1-.8zm-2.1-6.1c0 .5-.2.7-.6.8-.1 0-.3.1-.4.1v-2.9c.2 0 .3-.1.5-.1.4-.1.5 0 .5.5v1.6z" class="st2"/>
    <text transform="translate(35.333 13.853)" class="st3 st6 st7">
      LISTEN WITH
    </text>
    <text transform="translate(35.333 26.598)" class="st3 st6 st8">
      RadioPublic
    </text>
  </g>
  <g id="flattened">
    <path d="M4.5 34.6c-2.3 0-4.1-1.9-4.1-4.1v-26C.4 2.2 2.3.4 4.5.4H104c2.3 0 4.1 1.9 4.1 4.1v26c0 2.3-1.9 4.1-4.1 4.1H4.5z" class="st2"/>
    <path d="M104 .7c2.1 0 3.8 1.7 3.8 3.8v26c0 2.1-1.7 3.8-3.8 3.8H4.5c-2.1 0-3.8-1.7-3.8-3.8v-26C.7 2.4 2.4.7 4.5.7H104m0-.7H4.5C2 0 0 2 0 4.5v26C0 33 2 35 4.5 35H104c2.5 0 4.5-2 4.5-4.5v-26c0-2.5-2-4.5-4.5-4.5z" class="st3"/>
    <path id="Combined-Shape_4_" d="M27.6 27.3c-3.8-1.7-7.5 1.7-11.3 0V10c3.8 1.7 7.5-1.7 11.3 0v17.3z" class="st4"/>
    <path id="Fill-6_2_" d="M19.4 24.7s-.2 1-3.1 2.6v-9.4l3.1 6.8z" class="st5"/>
    <path id="Combined-Shape_1_" d="M19.4 24.7c-3.8-1.7-7.6 1.7-11.5 0V7.4c3.8 1.7 7.6-1.7 11.5 0v17.3z" class="st4"/>
    <path d="M22.4 12.9c-1 .2-2 .5-3 .6v11.3c.7-.1 1.4-.2 2.1-.4v-4.5c.3-.1.7-.2 1-.2 1.5-.3 2-1.2 2-2.6v-2.3c0-1.5-.3-2.3-2.1-1.9zm0 4.3c0 .4 0 .6-.5.8-.1 0-.3.1-.4.1v-3.2c.1 0 .3-.1.4-.1.5-.1.5.1.5.5v1.9zm-6.1 3.1v-3.8c0-.8-.6-1.2-.9-1.2.4-.2.9-.7.9-1.6v-1.8c0-1.2-.6-1.9-1.9-1.6-1.1.2-2.2.5-3.3.6v11.3c.7-.1 1.4-.2 2.1-.4V17c.1 0 .3-.1.4-.1.4-.1.5 0 .5.5v3.3c0 .5.1.7.2.8.7-.2 1.4-.3 2.1-.3v-.1c0-.1-.1-.3-.1-.8zm-2.1-6.1c0 .5-.2.7-.6.8-.1 0-.3.1-.4.1v-2.9c.2 0 .3-.1.5-.1.4-.1.5 0 .5.5v1.6z" class="st2"/>
    <path d="M35.9 8.4h1.4v4.2h1.6v1.2h-3V8.4zm3.5 0h1.4v5.4h-1.4V8.4zm3.4 3.7c0 .6.4.7.6.7.3 0 .5-.3.5-.5 0-.3-.2-.4-1.1-.7-.4-.2-1.3-.5-1.3-1.5 0-1.1 1-1.7 1.9-1.7.7 0 1.8.4 1.8 1.7h-1.4c0-.2-.1-.5-.5-.5-.2 0-.5.2-.5.4s.1.3 1.1.8 1.3.9 1.3 1.5c0 .9-.5 1.7-1.9 1.7s-2-.8-2-1.9h1.5zm3.8-2.4h-1.1V8.4H49v1.2h-1v4.2h-1.4V9.7zm3-1.3h3.1v1.2H51v.8h1.6v1.2H51v.9h1.7v1.2h-3.1V8.4zm7.1 3.3V8.4H58v5.4h-1.2l-2.1-3.3v3.3h-1.3V8.4h1.2l2.1 3.3zm3.9-3.3H62l.7 3.5.8-3.5h1.1l.8 3.5.7-3.5h1.4l-1.4 5.4h-1.2l-.9-3.4-.8 3.5H62l-1.4-5.5zm7.5 0h1.4v5.4h-1.4V8.4zm3 1.3H70V8.4h3.5v1.2h-1.1v4.2H71V9.7zm3 4.2V8.4h1.4v2h1.8v-2h1.4v5.4h-1.4v-2.2h-1.8v2.2h-1.4zm-38 4.3h2.7c1.3 0 2.1.2 2.6.6.7.5 1 1.4 1 2.3 0 .6-.2 1.1-.4 1.5-.3.4-.7.7-1.1.9l1.7 3.1h-2.2l-2.2-4.1h.4c.5 0 1 0 1.3-.2.3-.2.5-.6.5-1s-.2-.8-.5-1c-.2-.1-.6-.2-.9-.2h-.8v6.5h-2.1v-8.4zm13.5 8.4h-1.9v-.7c-.3.6-1.1.9-1.9.9-2 0-3.2-1.6-3.2-3.4 0-2.1 1.5-3.4 3.2-3.4 1 0 1.6.5 1.9.9v-.7h1.9v6.4zm-5.1-3.1c0 .6.4 1.6 1.6 1.6.7 0 1.1-.3 1.3-.7.2-.2.2-.5.3-.8 0-.3 0-.6-.2-.8-.2-.4-.6-.9-1.4-.9-1.1-.1-1.6.8-1.6 1.6zM57 26.6h-1.8v-.7c-.2.3-.6.9-1.9.9-1.9 0-3.2-1.5-3.2-3.4 0-2.1 1.5-3.3 3.1-3.3 1.1 0 1.6.5 1.9.7v-2.7H57v8.5zm-5-3.2c0 1 .7 1.6 1.6 1.6.5 0 .9-.2 1.2-.5.3-.3.5-.7.4-1.2 0-.5-.2-.8-.5-1.1-.3-.3-.7-.4-1.1-.4-1 0-1.6.9-1.6 1.6zm5.9-5.2h1.9v1.4h-1.9v-1.4zm0 2.1h1.9v6.3h-1.9v-6.3zm2.5 3.1c0-1.5 1.1-3.3 3.4-3.3s3.4 1.8 3.4 3.3-1.1 3.3-3.4 3.3c-2.3.1-3.4-1.7-3.4-3.3zm1.9.1c0 .9.7 1.6 1.5 1.6s1.5-.7 1.5-1.6c0-.9-.7-1.6-1.5-1.6s-1.5.6-1.5 1.6zm8.3-5.3c1.6 0 2.1.2 2.6.6.7.5 1 1.4 1 2.2 0 .9-.4 1.7-.9 2.2-.6.5-1.1.7-2.5.7H70v2.6h-2.1v-8.4h2.7zm-.6 3.9h.8c.2 0 .5 0 .8-.1.3-.1.5-.4.5-.9s-.2-.7-.5-.9-.6-.1-.9-.1H70v2zm10.3 4.5h-1.8v-.7c-.2.3-.6.9-1.7.9-2.1 0-2.3-1.7-2.3-2.6v-3.9h1.9v3.4c0 .7.1 1.3 1 1.3s1.1-.7 1.1-1.3v-3.4h1.9v6.3zm.9-8.4h1.9v2.6c.7-.7 1.6-.7 1.8-.7 1.3 0 3.1.9 3.1 3.3 0 2.3-1.6 3.4-3.2 3.4-.9 0-1.6-.4-1.8-.9v.7h-1.8v-8.4zm4.9 5.2c0-.8-.6-1.6-1.5-1.6-1 0-1.6.8-1.6 1.6 0 .9.6 1.6 1.5 1.6 1 .1 1.6-.7 1.6-1.6zm2.5-5.2h1.9v8.4h-1.9v-8.4zm2.8 0h1.9v1.4h-1.9v-1.4zm0 2.1h1.9v6.3h-1.9v-6.3zm9.1 3.9c-.3 1.4-1.6 2.6-3.3 2.6-1.9 0-3.4-1.5-3.4-3.4s1.4-3.3 3.3-3.3c1.7 0 3 1.1 3.3 2.6h-1.9c-.2-.4-.6-.9-1.4-.9-.4 0-.8.1-1.1.4-.3.3-.4.7-.4 1.2 0 .9.6 1.6 1.5 1.6.8 0 1.2-.5 1.4-.8h2z" class="st3"/>
  </g>
</svg>
