<?xml version="1.0" encoding="UTF-8"?>
<svg width="34px" height="34px" viewBox="0 0 34 34" xmlns="http://www.w3.org/2000/svg" xmlns:xlink="http://www.w3.org/1999/xlink" version="1.1">
 <!-- Generated by Pixelmator Pro 2.1.5 -->
 <path id="Path" d="M33.32 29.46 C32.848 30.578 32.102 31.558 31.15 32.31 30.44 32.872 29.628 33.293 28.76 33.55 27.417 33.885 26.033 34.03 24.65 33.98 L9.35 33.98 C7.967 34.03 6.583 33.885 5.24 33.55 3.18 32.935 1.504 31.431 0.67 29.45 0.154 27.901 -0.073 26.271 -0 24.64 L-0 9.35 C-0.072 7.715 0.159 6.081 0.68 4.53 1.514 2.549 3.19 1.045 5.25 0.43 6.59 0.096 7.97 -0.049 9.35 0 L24.65 0 C26.033 -0.05 27.417 0.095 28.76 0.43 30.82 1.045 32.496 2.549 33.33 4.53 33.847 6.082 34.074 7.716 34 9.35 L34 24.65 C34.07 26.281 33.84 27.912 33.32 29.46 Z" fill="#ee802f" fill-opacity="1" stroke="none"/>
 <path id="Path-1" d="M9.43 21.81 C7.918 21.816 6.696 23.045 6.7 24.557 6.704 26.069 7.931 27.292 9.443 27.29 10.955 27.288 12.18 26.062 12.18 24.55 12.174 23.035 10.945 21.81 9.43 21.81 Z M6.69 13.69 L6.69 17.69 C9.252 17.693 11.708 18.713 13.518 20.526 15.327 22.34 16.343 24.798 16.34 27.36 L20.34 27.36 C20.348 23.735 18.913 20.257 16.352 17.692 13.791 15.127 10.314 13.687 6.69 13.69 Z M6.69 6.69 L6.69 10.69 C15.869 10.706 23.312 18.131 23.35 27.31 L27.35 27.31 C27.334 15.912 18.089 6.68 6.691 6.68 Z" fill="#ffffff" fill-opacity="1" stroke="none"/>
</svg>
