<?xml version="1.0" encoding="UTF-8"?>
<svg width="200px" height="200px" viewBox="0 0 200 200" xmlns="http://www.w3.org/2000/svg" xmlns:xlink="http://www.w3.org/1999/xlink" version="1.1">
 <!-- Generated by Pixelmator Pro 2.2 -->
 <g id="New-Group">
  <path id="Path" d="M196.011 173.355 C193.235 179.931 188.846 185.696 183.246 190.12 179.07 193.426 174.293 195.902 169.187 197.414 161.287 199.385 153.146 200.238 145.01 199.943 L55.008 199.943 C46.873 200.238 38.731 199.385 30.831 197.414 18.713 193.796 8.854 184.949 3.948 173.296 0.913 164.184 -0.422 154.595 0.007 145.001 L0.007 55.058 C-0.417 45.44 0.942 35.828 4.007 26.704 8.913 15.051 18.772 6.204 30.89 2.586 38.773 0.621 46.89 -0.232 55.008 0.057 L145.01 0.057 C153.146 -0.238 161.287 0.615 169.187 2.586 181.305 6.204 191.164 15.051 196.07 26.704 199.111 35.834 200.447 45.446 200.011 55.058 L200.011 145.06 C200.423 154.654 199.07 164.248 196.011 173.355 Z" fill="#ee802f" fill-opacity="1" stroke="none"/>
  <path id="Path-1" d="M55.479 128.354 C46.585 128.389 39.396 135.618 39.42 144.513 39.443 153.407 46.661 160.601 55.555 160.59 64.45 160.578 71.656 153.366 71.656 144.472 71.62 135.56 64.391 128.354 55.479 128.354 Z M39.361 80.588 L39.361 104.118 C54.432 104.135 68.879 110.136 79.526 120.8 90.168 131.471 96.144 145.93 96.127 161.001 L119.657 161.001 C119.704 139.677 111.262 119.218 96.197 104.13 81.132 89.041 60.679 80.57 39.361 80.588 Z M39.361 39.41 L39.361 62.94 C93.356 63.034 137.139 106.712 137.363 160.707 L160.893 160.707 C160.799 93.659 106.415 39.352 39.367 39.352 Z" fill="#ffffff" fill-opacity="1" stroke="none"/>
 </g>
</svg>
