<?xml version="1.0" encoding="UTF-8"?>
<svg width="162px" height="110px" viewBox="0 0 162 110" xmlns="http://www.w3.org/2000/svg" xmlns:xlink="http://www.w3.org/1999/xlink" version="1.1">
 <!-- Generated by Pixelmator Pro 2.1.5 -->
 <path id="Path" d="M154.3 17.5 C152.48 10.774 147.226 5.52 140.5 3.7 128.4 0.4 79.7 0.4 79.7 0.4 79.7 0.4 31 0.5 18.9 3.8 12.174 5.62 6.92 10.874 5.1 17.6 1.44 39.1 0.02 71.86 5.2 92.5 7.02 99.226 12.274 104.48 19 106.3 31.1 109.6 79.8 109.6 79.8 109.6 79.8 109.6 128.5 109.6 140.6 106.3 147.326 104.48 152.58 99.226 154.4 92.5 158.26 70.97 159.45 38.23 154.3 17.5 Z" fill="#ff0000" fill-opacity="1" stroke="none"/>
 <path id="Path-1" d="M64.2 78.4 L104.6 55 64.2 31.6 Z" fill="#ffffff" fill-opacity="1" stroke="none"/>
</svg>
